<svg xmlns="http://www.w3.org/2000/svg" width="24" height="24" viewBox="0 0 24 24"><g fill-rule="evenodd"><path fill="none" d="M0 0H24V24H0z"></path><path d="M7.84375,2.5 C8.13523362,2.5 8.37765994,2.71003925 8.42793389,2.98702269 L8.4375,3.09375 L8.4375,4.375 L15.5625,4.375 L15.5625,3.09375 C15.5625,2.80226638 15.7725393,2.55984006 16.0495227,2.50956611 L16.15625,2.5 L17.34375,2.5 C17.6352336,2.5 17.8776599,2.71003925 17.9279339,2.98702269 L17.9375,3.09375 L17.9375,4.375 L19.2165397,4.375 C20.0105486,4.375 20.2984754,4.45767281 20.5887532,4.61291506 C20.879031,4.76815732 21.1068427,4.99596902 21.2620849,5.2862468 C21.4173272,5.57652457 21.5,5.86445138 21.5,6.65846026 L21.5,18.7165397 C21.5,19.5105486 21.4173272,19.7984754 21.2620849,20.0887532 C21.1068427,20.379031 20.879031,20.6068427 20.5887532,20.7620849 C20.2984754,20.9173272 20.0105486,21 19.2165397,21 L4.78346026,21 C3.98945138,21 3.70152457,20.9173272 3.4112468,20.7620849 C3.12096902,20.6068427 2.89315732,20.379031 2.73791506,20.0887532 C2.59678574,19.8248643 2.51563117,19.5629184 2.50204215,18.9209221 L2.5,6.65846026 C2.5,5.86445138 2.58267281,5.57652457 2.73791506,5.2862468 C2.89315732,4.99596902 3.12096902,4.76815732 3.4112468,4.61291506 C3.67513568,4.47178574 3.93708162,4.39063117 4.57907788,4.37704215 L6.0625,4.375 L6.0625,3.09375 C6.0625,2.80226638 6.27253925,2.55984006 6.54952269,2.50956611 L6.65625,2.5 L7.84375,2.5 Z M7.84375,12.6875 L6.65625,12.6875 C6.32833093,12.6875 6.0625,12.9533309 6.0625,13.28125 L6.0625,13.28125 L6.0625,14.46875 C6.0625,14.7966691 6.32833093,15.0625 6.65625,15.0625 L6.65625,15.0625 L7.84375,15.0625 C8.17166907,15.0625 8.4375,14.7966691 8.4375,14.46875 L8.4375,14.46875 L8.4375,13.28125 C8.4375,12.9533309 8.17166907,12.6875 7.84375,12.6875 L7.84375,12.6875 Z M12.59375,12.6875 L11.40625,12.6875 C11.0783309,12.6875 10.8125,12.9533309 10.8125,13.28125 L10.8125,13.28125 L10.8125,14.46875 C10.8125,14.7966691 11.0783309,15.0625 11.40625,15.0625 L11.40625,15.0625 L12.59375,15.0625 C12.9216691,15.0625 13.1875,14.7966691 13.1875,14.46875 L13.1875,14.46875 L13.1875,13.28125 C13.1875,12.9533309 12.9216691,12.6875 12.59375,12.6875 L12.59375,12.6875 Z M7.84375,7.9375 L6.65625,7.9375 C6.32833093,7.9375 6.0625,8.20333093 6.0625,8.53125 L6.0625,8.53125 L6.0625,9.71875 C6.0625,10.0466691 6.32833093,10.3125 6.65625,10.3125 L6.65625,10.3125 L7.84375,10.3125 C8.17166907,10.3125 8.4375,10.0466691 8.4375,9.71875 L8.4375,9.71875 L8.4375,8.53125 C8.4375,8.20333093 8.17166907,7.9375 7.84375,7.9375 L7.84375,7.9375 Z M12.59375,7.9375 L11.40625,7.9375 C11.0783309,7.9375 10.8125,8.20333093 10.8125,8.53125 L10.8125,8.53125 L10.8125,9.71875 C10.8125,10.0466691 11.0783309,10.3125 11.40625,10.3125 L11.40625,10.3125 L12.59375,10.3125 C12.9216691,10.3125 13.1875,10.0466691 13.1875,9.71875 L13.1875,9.71875 L13.1875,8.53125 C13.1875,8.20333093 12.9216691,7.9375 12.59375,7.9375 L12.59375,7.9375 Z M17.34375,7.9375 L16.15625,7.9375 C15.8283309,7.9375 15.5625,8.20333093 15.5625,8.53125 L15.5625,8.53125 L15.5625,9.71875 C15.5625,10.0466691 15.8283309,10.3125 16.15625,10.3125 L16.15625,10.3125 L17.34375,10.3125 C17.6716691,10.3125 17.9375,10.0466691 17.9375,9.71875 L17.9375,9.71875 L17.9375,8.53125 C17.9375,8.20333093 17.6716691,7.9375 17.34375,7.9375 L17.34375,7.9375 Z" fill="#fff"></path></g></svg>