<svg width="24" height="24" viewBox="0 0 24 24" fill="none" xmlns="http://www.w3.org/2000/svg">
<path fill-rule="evenodd" clip-rule="evenodd" d="M4.69118 1.25C5.04854 1.25 5.33824 1.5397 5.33824 1.89706V2.54412H21.2576C21.6149 2.54412 21.9048 2.83382 21.9048 3.19118C21.9048 3.2622 21.8929 3.33274 21.87 3.39997L20.02 8.82661C19.8354 9.36808 19.8354 9.95545 20.02 10.4969L21.87 15.9236C21.9853 16.2618 21.8046 16.6295 21.4663 16.7448C21.3991 16.7677 21.3286 16.7794 21.2576 16.7794H5.33824V22.6029C5.33824 22.9603 5.04854 23.25 4.69118 23.25H3.39706C3.0397 23.25 2.75 22.9603 2.75 22.6029V1.89706C2.75 1.5397 3.0397 1.25 3.39706 1.25H4.69118ZM12.1324 12.25C11.5963 12.25 11.1618 12.6845 11.1618 13.2206C11.1618 13.7566 11.5963 14.1912 12.1324 14.1912C12.6684 14.1912 13.1029 13.7566 13.1029 13.2206C13.1029 12.6845 12.6684 12.25 12.1324 12.25ZM16.0147 12.25C15.4787 12.25 15.0441 12.6845 15.0441 13.2206C15.0441 13.7566 15.4787 14.1912 16.0147 14.1912C16.5507 14.1912 16.9853 13.7566 16.9853 13.2206C16.9853 12.6845 16.5507 12.25 16.0147 12.25ZM8.25 12.25C7.71396 12.25 7.27941 12.6845 7.27941 13.2206C7.27941 13.7566 7.71396 14.1912 8.25 14.1912C8.78604 14.1912 9.22059 13.7566 9.22059 13.2206C9.22059 12.6845 8.78604 12.25 8.25 12.25ZM12.4559 5.13235H11.8088C11.477 5.13235 11.2035 5.38214 11.1661 5.70395L11.1618 5.77941V10.9559C11.1618 11.2877 11.4116 11.5612 11.7334 11.5986L11.8088 11.6029H12.4559C12.7877 11.6029 13.0612 11.3532 13.0986 11.0313L13.1029 10.9559V5.77941C13.1029 5.44758 12.8532 5.17408 12.5313 5.13671L12.4559 5.13235ZM16.3382 5.13235H15.6912C15.3593 5.13235 15.0858 5.38214 15.0485 5.70395L15.0441 5.77941V10.9559C15.0441 11.2877 15.2939 11.5612 15.6157 11.5986L15.6912 11.6029H16.3382C16.6701 11.6029 16.9436 11.3532 16.9809 11.0313L16.9853 10.9559V5.77941C16.9853 5.44758 16.7355 5.17408 16.4137 5.13671L16.3382 5.13235ZM8.57353 5.13235H7.92647C7.59464 5.13235 7.32114 5.38214 7.28377 5.70395L7.27941 5.77941V10.9559C7.27941 11.2877 7.5292 11.5612 7.85101 11.5986L7.92647 11.6029H8.57353C8.90536 11.6029 9.17886 11.3532 9.21623 11.0313L9.22059 10.9559V5.77941C9.22059 5.44758 8.9708 5.17408 8.64899 5.13671L8.57353 5.13235Z" fill="#E03131"/>
</svg>
