<svg viewBox="0 0 18 18" fill="none" xmlns="http://www.w3.org/2000/svg">
<path d="M16.0714 0C17.1365 0 18 0.863451 18 1.92857V16.0714C18 17.1365 17.1365 18 16.0714 18H1.92857C0.863451 18 0 17.1365 0 16.0714V1.92857C0 0.863451 0.863451 0 1.92857 0H16.0714ZM14.1553 4.57902C13.9325 4.39149 13.6126 4.39359 13.3933 4.56997L13.3161 4.64425L8.41285 10.2814L5.38227 7.6791C5.16095 7.48905 4.84039 7.48841 4.61937 7.66344L4.54154 7.73728L3.74216 8.64306C3.54924 8.86563 3.54916 9.18977 3.72739 9.41149L3.80256 9.48944L8.21482 13.314L8.30278 13.3771C8.51724 13.5035 8.78961 13.4834 8.98328 13.3271L9.06106 13.2517L15.1476 6.19867C15.3373 5.97334 15.3327 5.64923 15.1513 5.43011L15.075 5.35326L14.1553 4.57902Z" fill="#999999"/>
</svg>

