<svg width="36" height="36" viewBox="0 0 36 36" fill="none" xmlns="http://www.w3.org/2000/svg">
<path d="M10.4902 7.2791C11.6148 7.2791 12.5267 6.36715 12.5267 5.24194V2.03653C12.5267 0.911953 11.6148 0 10.4902 0C9.36496 0 8.453 0.911953 8.453 2.03653V5.24194C8.453 6.36722 9.36496 7.2791 10.4902 7.2791ZM25.5105 7.2791C26.6351 7.2791 27.5471 6.36715 27.5471 5.24194V2.03653C27.547 0.911953 26.6351 0 25.5105 0C24.3853 0 23.4734 0.911953 23.4734 2.03653V5.24194C23.4734 6.36722 24.3853 7.2791 25.5105 7.2791Z" fill="#999"/>
<path d="M30.5975 2.90298H29.337V5.24193C29.337 7.35257 27.6204 9.06918 25.5105 9.06918C23.3999 9.06918 21.6833 7.35257 21.6833 5.24193V2.90298H14.3167V5.24193C14.3167 7.35257 12.6001 9.06918 10.4901 9.06918C8.37956 9.06918 6.66288 7.35257 6.66288 5.24193V2.90298H5.40252C2.69353 2.90298 0.497314 5.0992 0.497314 7.8082V31.0948C0.497314 33.8038 2.69353 36 5.40252 36H30.5975C33.3065 36 35.5027 33.8038 35.5027 31.0948V7.8082C35.5027 5.0992 33.3065 2.90298 30.5975 2.90298ZM31.6422 30.2335C31.6422 31.4869 30.6225 32.5067 29.3691 32.5067H6.63088C5.37749 32.5067 4.35782 31.4869 4.35782 30.2335V12.0147H31.6423L31.6422 30.2335Z" fill="#999"/>
</svg>
