<svg width="36" height="36" viewBox="0 0 36 36" fill="none" xmlns="http://www.w3.org/2000/svg">
<path d="M36 27.5747L25.4118 36H5.29412C2.38235 36 0 33.84 0 31.2V4.8C0 2.16 2.38235 0 5.29412 0H30.7059C33.6176 0 36 2.16 36 4.8V27.5747ZM7.41176 9.57474C6.08824 9.57474 5.29412 10.2947 5.29412 11.4947C5.29412 12.4547 6.08824 13.4147 7.41176 13.4147H26.2059C27.2647 13.4147 28.3235 12.6947 28.3235 11.4947C28.3235 10.5347 27.5294 9.57474 26.2059 9.57474H7.41176ZM7.41176 19.8947C6.08824 19.8947 5.29412 20.6147 5.29412 21.8147C5.29412 23.0147 6.08824 23.7347 7.41176 23.7347H20.9118C21.9706 23.7347 23.0294 23.0147 23.0294 21.8147C23.0294 20.6147 21.9706 19.8947 20.6471 19.8947H7.41176Z" fill="#999999"/>
</svg>
