<svg width="20" height="20" viewBox="0 0 20 20" fill="none" xmlns="http://www.w3.org/2000/svg">
<path fill-rule="evenodd" clip-rule="evenodd" d="M12.0762 0C13.4575 0 14.5876 1.02132 14.6758 2.3125L14.6814 2.47525V2.9703H19.479C19.7667 2.9703 20 3.19194 20 3.46535V4.45545C20 4.72885 19.7667 4.9505 19.479 4.9505H18.958V17.5248C18.958 18.8371 17.8831 19.9109 16.5241 19.9947L16.3528 20H3.64715C2.26594 20 1.13579 18.9787 1.04758 17.6875L1.04204 17.5248V4.9505H0.521022C0.233269 4.9505 0 4.72885 0 4.45545V3.46535C0 3.19194 0.233269 2.9703 0.521022 2.9703H5.30297V2.47525C5.30297 1.16289 6.37787 0.0890706 7.73679 0.00526499L7.90807 0H12.0762ZM10.5132 6.93069C10.8009 6.93069 11.0342 7.15233 11.0342 7.42574V15.5446C11.0342 15.818 10.8009 16.0396 10.5132 16.0396H9.47114C9.18339 16.0396 8.95012 15.818 8.95012 15.5446V7.42574C8.95012 7.15233 9.18339 6.93069 9.47114 6.93069H10.5132ZM12.0762 1.9802H7.90807C7.65229 1.9802 7.43956 2.15532 7.39545 2.38626L7.38705 2.47525V2.9703H12.5973V2.47525C12.5973 2.2626 12.4562 2.08126 12.258 2.01117L12.1699 1.98817L12.0762 1.9802Z" fill="#999999"/>
</svg>