<svg width="24" height="24" viewBox="0 0 24 24" fill="none" xmlns="http://www.w3.org/2000/svg">
<path fill-rule="evenodd" clip-rule="evenodd" d="M4.47549 1.25C4.95197 1.25 5.33824 1.63626 5.33824 2.11275V2.54412H20.9561C21.4326 2.54412 21.8189 2.93038 21.8189 3.40686C21.8189 3.50156 21.8033 3.59561 21.7727 3.68525L20.1149 8.54822C19.8688 9.27018 19.8688 10.0533 20.1149 10.7753L21.7727 15.6383C21.9265 16.0893 21.6855 16.5795 21.2345 16.7333C21.1449 16.7638 21.0508 16.7794 20.9561 16.7794H5.33824V22.3873C5.33824 22.8637 4.95197 23.25 4.47549 23.25H3.61275C3.13626 23.25 2.75 22.8637 2.75 22.3873V2.11275C2.75 1.63626 3.13626 1.25 3.61275 1.25H4.47549ZM12.4559 11.9265C11.7412 11.9265 11.1618 12.5059 11.1618 13.2206C11.1618 13.9353 11.7412 14.5147 12.4559 14.5147C13.1706 14.5147 13.75 13.9353 13.75 13.2206C13.75 12.5059 13.1706 11.9265 12.4559 11.9265ZM12.8873 4.80882H12.0245C11.5821 4.80882 11.2174 5.14188 11.1676 5.57095L11.1618 5.67157V10.4167C11.1618 10.8591 11.4948 11.2238 11.9239 11.2736L12.0245 11.2794H12.8873C13.3297 11.2794 13.6944 10.9464 13.7442 10.5173L13.75 10.4167V5.67157C13.75 5.19509 13.3637 4.80882 12.8873 4.80882Z" fill="#08B408"/>
</svg>