<svg width="24" height="24" viewBox="0 0 24 24" fill="none" xmlns="http://www.w3.org/2000/svg">
<path fill-rule="evenodd" clip-rule="evenodd" d="M4.69118 1.25C5.04854 1.25 5.33824 1.5397 5.33824 1.89706V2.54412H21.2576C21.6149 2.54412 21.9048 2.83382 21.9048 3.19118C21.9048 3.2622 21.8929 3.33274 21.87 3.39997L20.02 8.82661C19.8354 9.36808 19.8354 9.95545 20.02 10.4969L21.87 15.9236C21.9853 16.2618 21.8046 16.6295 21.4663 16.7448C21.3991 16.7677 21.3286 16.7794 21.2576 16.7794H5.33824V22.6029C5.33824 22.9603 5.04854 23.25 4.69118 23.25H3.39706C3.0397 23.25 2.75 22.9603 2.75 22.6029V1.89706C2.75 1.5397 3.0397 1.25 3.39706 1.25H4.69118ZM14.7206 11.9265C14.0059 11.9265 13.4265 12.5059 13.4265 13.2206C13.4265 13.9353 14.0059 14.5147 14.7206 14.5147C15.4353 14.5147 16.0147 13.9353 16.0147 13.2206C16.0147 12.5059 15.4353 11.9265 14.7206 11.9265ZM10.1912 11.9265C9.47646 11.9265 8.89706 12.5059 8.89706 13.2206C8.89706 13.9353 9.47646 14.5147 10.1912 14.5147C10.9059 14.5147 11.4853 13.9353 11.4853 13.2206C11.4853 12.5059 10.9059 11.9265 10.1912 11.9265ZM15.2059 4.80882H14.2353C13.9035 4.80882 13.63 5.05861 13.5926 5.38042L13.5882 5.45588V10.6324C13.5882 10.9642 13.838 11.2377 14.1598 11.2751L14.2353 11.2794H15.2059C15.5377 11.2794 15.8112 11.0296 15.8486 10.7078L15.8529 10.6324V5.45588C15.8529 5.09852 15.5632 4.80882 15.2059 4.80882ZM10.6765 4.80882H9.70588C9.37405 4.80882 9.10055 5.05861 9.06318 5.38042L9.05882 5.45588V10.6324C9.05882 10.9642 9.30861 11.2377 9.63042 11.2751L9.70588 11.2794H10.6765C11.0083 11.2794 11.2818 11.0296 11.3192 10.7078L11.3235 10.6324V5.45588C11.3235 5.09852 11.0338 4.80882 10.6765 4.80882Z" fill="#FFB000"/>
</svg>
