<svg width="24" height="24" viewBox="0 0 24 24" fill="none" xmlns="http://www.w3.org/2000/svg">
<path fill-rule="evenodd" clip-rule="evenodd" d="M3.94118 1C4.29854 1 4.58824 1.2897 4.58824 1.64706V2.29412H20.5076C20.8649 2.29412 21.1548 2.58382 21.1548 2.94118C21.1548 3.0122 21.1429 3.08274 21.12 3.14997L19.27 8.57661C19.0854 9.11808 19.0854 9.70545 19.27 10.2469L21.12 15.6736C21.2353 16.0118 21.0546 16.3795 20.7163 16.4948C20.6491 16.5177 20.5786 16.5294 20.5076 16.5294H4.58824V22.3529C4.58824 22.7103 4.29854 23 3.94118 23H2.64706C2.2897 23 2 22.7103 2 22.3529V1.64706C2 1.2897 2.2897 1 2.64706 1H3.94118Z" fill="#bbb"/>
</svg>
