<svg xmlns="http://www.w3.org/2000/svg" width="24" height="24" viewBox="0 0 24 24"><path d="M12.5227273,20.3636364 C12.8114216,20.3636364 13.0454545,20.5976693 13.0454545,20.8863636 L13.0454545,22.9772727 C13.0454545,23.265967 12.8114216,23.5 12.5227273,23.5 L11.4772727,23.5 C11.1885784,23.5 10.9545455,23.265967 10.9545455,22.9772727 L10.9545455,20.8863636 C10.9545455,20.5976693 11.1885784,20.3636364 11.4772727,20.3636364 L12.5227273,20.3636364 Z M5.71639201,17.54436 L6.45564001,18.283608 C6.65977771,18.4877457 6.65977771,18.8187183 6.45564001,19.022856 L4.97714401,20.501352 C4.77300632,20.7054897 4.44203371,20.7054897 4.23789602,20.501352 L3.49864802,19.762104 C3.29451032,19.5579663 3.29451032,19.2269937 3.49864802,19.022856 L4.97714401,17.54436 C5.18128171,17.3402223 5.51225431,17.3402223 5.71639201,17.54436 Z M19.022856,17.54436 L20.501352,19.022856 C20.7054897,19.2269937 20.7054897,19.5579663 20.501352,19.762104 L19.762104,20.501352 C19.5579663,20.7054897 19.2269937,20.7054897 19.022856,20.501352 L17.54436,19.022856 C17.3402223,18.8187183 17.3402223,18.4877457 17.54436,18.283608 L18.283608,17.54436 C18.4877457,17.3402223 18.8187183,17.3402223 19.022856,17.54436 Z M12,4.68181818 C16.0417202,4.68181818 19.3181818,7.95827979 19.3181818,12 C19.3181818,16.0417202 16.0417202,19.3181818 12,19.3181818 C7.95827979,19.3181818 4.68181818,16.0417202 4.68181818,12 C4.68181818,7.95827979 7.95827979,4.68181818 12,4.68181818 Z M3.11363636,10.9545455 C3.40233066,10.9545455 3.63636364,11.1885784 3.63636364,11.4772727 L3.63636364,12.5227273 C3.63636364,12.8114216 3.40233066,13.0454545 3.11363636,13.0454545 L1.02272727,13.0454545 C0.734032972,13.0454545 0.5,12.8114216 0.5,12.5227273 L0.5,11.4772727 C0.5,11.1885784 0.734032972,10.9545455 1.02272727,10.9545455 L3.11363636,10.9545455 Z M22.9772727,10.9545455 C23.265967,10.9545455 23.5,11.1885784 23.5,11.4772727 L23.5,12.5227273 C23.5,12.8114216 23.265967,13.0454545 22.9772727,13.0454545 L20.8863636,13.0454545 C20.5976693,13.0454545 20.3636364,12.8114216 20.3636364,12.5227273 L20.3636364,11.4772727 C20.3636364,11.1885784 20.5976693,10.9545455 20.8863636,10.9545455 L22.9772727,10.9545455 Z M19.762104,3.49864802 L20.501352,4.23789602 C20.7054897,4.44203371 20.7054897,4.77300632 20.501352,4.97714401 L19.022856,6.45564001 C18.8187183,6.65977771 18.4877457,6.65977771 18.283608,6.45564001 L17.54436,5.71639201 C17.3402223,5.51225431 17.3402223,5.18128171 17.54436,4.97714401 L19.022856,3.49864802 C19.2269937,3.29451032 19.5579663,3.29451032 19.762104,3.49864802 Z M4.97714401,3.49864802 L6.45564001,4.97714401 C6.65977771,5.18128171 6.65977771,5.51225431 6.45564001,5.71639201 L5.71639201,6.45564001 C5.51225431,6.65977771 5.18128171,6.65977771 4.97714401,6.45564001 L3.49864802,4.97714401 C3.29451032,4.77300632 3.29451032,4.44203371 3.49864802,4.23789602 L4.23789602,3.49864802 C4.44203371,3.29451032 4.77300632,3.29451032 4.97714401,3.49864802 Z M12.5227273,0.5 C12.8114216,0.5 13.0454545,0.734032972 13.0454545,1.02272727 L13.0454545,3.11363636 C13.0454545,3.40233066 12.8114216,3.63636364 12.5227273,3.63636364 L11.4772727,3.63636364 C11.1885784,3.63636364 10.9545455,3.40233066 10.9545455,3.11363636 L10.9545455,1.02272727 C10.9545455,0.734032972 11.1885784,0.5 11.4772727,0.5 L12.5227273,0.5 Z" fill-rule="evenodd" fill="#fff"></path></svg>