<svg xmlns="http://www.w3.org/2000/svg" width="24" height="24" viewBox="0 0 24 24"><path d="M12.369624,1.1560543 L16.5514422,5.41847602 C16.7555799,5.62654843 16.7555799,5.96390045 16.5514422,6.17197285 L15.8121942,6.92546967 C15.6080296,7.13347951 15.277091,7.13349965 15.072902,6.92551467 L13.0454545,4.85962287 L13.0465105,9.28842843 C16.51149,9.79413385 19.1932364,12.7738622 19.3139383,16.4155352 L19.3181818,16.6719728 C19.3181818,17.7975305 19.0721715,18.8851037 18.6135682,19.8693957 L20.8863636,19.8687891 C21.1750579,19.8687891 21.4090909,20.107333 21.4090909,20.4015919 L21.4090909,21.4671973 C21.4090909,21.7614561 21.1750579,22 20.8863636,22 L3.11363636,22 C2.82494206,22 2.59090909,21.7614561 2.59090909,21.4671973 L2.59090909,20.4015919 C2.59090909,20.107333 2.82494206,19.8687891 3.11363636,19.8687891 L5.38643183,19.8693957 C4.92782852,18.8851037 4.68181818,17.7975305 4.68181818,16.6719728 C4.68181818,12.9141483 7.40805171,9.80534278 10.9545369,9.28827564 L10.9545455,4.85855726 L8.92709796,6.92551467 C8.72290898,7.13349965 8.39197042,7.13347951 8.18780582,6.92546967 L7.44855782,6.17197285 C7.24442012,5.96390045 7.24442012,5.62654843 7.44855782,5.41847602 L11.630376,1.1560543 C11.8345137,0.947981899 12.1654863,0.947981899 12.369624,1.1560543 Z M3.11363636,15.6063674 C3.40233066,15.6063674 3.63636364,15.8449113 3.63636364,16.1391701 L3.63636364,17.2047756 C3.63636364,17.4990344 3.40233066,17.7375783 3.11363636,17.7375783 L1.02272727,17.7375783 C0.734032972,17.7375783 0.5,17.4990344 0.5,17.2047756 L0.5,16.1391701 C0.5,15.8449113 0.734032972,15.6063674 1.02272727,15.6063674 L3.11363636,15.6063674 Z M22.9772727,15.6063674 C23.265967,15.6063674 23.5,15.8449113 23.5,16.1391701 L23.5,17.2047756 C23.5,17.4990344 23.265967,17.7375783 22.9772727,17.7375783 L20.8863636,17.7375783 C20.5976693,17.7375783 20.3636364,17.4990344 20.3636364,17.2047756 L20.3636364,16.1391701 C20.3636364,15.8449113 20.5976693,15.6063674 20.8863636,15.6063674 L22.9772727,15.6063674 Z M4.97714401,8.00675935 L6.45564001,9.513753 C6.65977771,9.72182541 6.65977771,10.0591774 6.45564001,10.2672498 L5.71639201,11.0207467 C5.51225431,11.2288191 5.18128171,11.2288191 4.97714401,11.0207467 L3.49864802,9.513753 C3.29451032,9.3056806 3.29451032,8.96832858 3.49864802,8.76025618 L4.23789602,8.00675935 C4.44203371,7.79868695 4.77300632,7.79868695 4.97714401,8.00675935 Z M19.762104,8.00675935 L20.501352,8.76025618 C20.7054897,8.96832858 20.7054897,9.3056806 20.501352,9.513753 L19.022856,11.0207467 C18.8187183,11.2288191 18.4877457,11.2288191 18.283608,11.0207467 L17.54436,10.2672498 C17.3402223,10.0591774 17.3402223,9.72182541 17.54436,9.513753 L19.022856,8.00675935 C19.2269937,7.79868695 19.5579663,7.79868695 19.762104,8.00675935 Z" fill-rule="evenodd" fill="#fff"></path></svg>