<svg xmlns="http://www.w3.org/2000/svg" width="24" height="24" viewBox="0 0 24 24"><g fill-rule="evenodd"><path fill="none" d="M0 0H24V24H0z"></path><path d="M7.84375,2.5 C8.13523362,2.5 8.37765994,2.71003925 8.42793389,2.98702269 L8.4375,3.09375 L8.4375,4.375 L15.5625,4.375 L15.5625,3.09375 C15.5625,2.80226638 15.7725393,2.55984006 16.0495227,2.50956611 L16.15625,2.5 L17.34375,2.5 C17.6352336,2.5 17.8776599,2.71003925 17.9279339,2.98702269 L17.9375,3.09375 L17.9375,4.375 L19.2165397,4.375 C20.0105486,4.375 20.2984754,4.45767281 20.5887532,4.61291506 C20.879031,4.76815732 21.1068427,4.99596902 21.2620849,5.2862468 C21.4173272,5.57652457 21.5,5.86445138 21.5,6.65846026 L21.5,18.7165397 C21.5,19.5105486 21.4173272,19.7984754 21.2620849,20.0887532 C21.1068427,20.379031 20.879031,20.6068427 20.5887532,20.7620849 C20.2984754,20.9173272 20.0105486,21 19.2165397,21 L4.78346026,21 C3.98945138,21 3.70152457,20.9173272 3.4112468,20.7620849 C3.12096902,20.6068427 2.89315732,20.379031 2.73791506,20.0887532 C2.59678574,19.8248643 2.51563117,19.5629184 2.50204215,18.9209221 L2.5,6.65846026 C2.5,5.86445138 2.58267281,5.57652457 2.73791506,5.2862468 C2.89315732,4.99596902 3.12096902,4.76815732 3.4112468,4.61291506 C3.67513568,4.47178574 3.93708162,4.39063117 4.57907788,4.37704215 L6.0625,4.375 L6.0625,3.09375 C6.0625,2.80226638 6.27253925,2.55984006 6.54952269,2.50956611 L6.65625,2.5 L7.84375,2.5 Z M16.9726562,8.45703125 L12.109375,8.45703125 L12.109375,10.9179688 L13.3339844,10.9179688 L13.3339844,9.68164062 L15.6015625,9.68164062 L12.7128906,17 L14.078125,17 L16.9726562,9.68164062 L16.9726562,8.45703125 Z M9.33,10.5 L8.11,10.5 L8.11,12.1 L6.5,12.1 L6.5,13.32 L8.11,13.32 L8.11,14.92 L9.33,14.92 L9.33,13.32 L10.93,13.32 L10.93,12.1 L9.33,12.1 L9.33,10.5 Z" fill="#fff"></path></g></svg>